<?xml version="1.0" standalone="no"?>
<!DOCTYPE svg PUBLIC "-//W3C//DTD SVG 1.1//EN"
	"http://www.w3.org/Graphics/SVG/1.1/DTD/svg11.dtd">
<svg xmlns="http://www.w3.org/2000/svg" version="1.1"
	xmlns:xlink="http://www.w3.org/1999/xlink"
	color="black"
	width="255px" height="83.00px">
<style type="text/css">
.fill {fill: currentColor}
.stroke {stroke: currentColor; fill: none}
text{white-space: pre}
</style>
<title>athole-house-bowing.abc (1) tune 1</title>
<!-- Creator: abcm2ps-8.14.11 -->
<!-- CreationDate: Mar 16, 2022 15:10 -->
<!-- CommandLine: -g athole-house-bowing.abc -->
<g stroke-width="0.70">
<path class="stroke" stroke-width="3"
	d="M242.30 60.00v-24.00"/>
<path class="stroke" stroke-width="1"
	d="M237.80 60.00v-24.00"/>
<path d="m10.00 60.00
	h233.80
	M10.00 54.00
	h233.80
	M10.00 48.00
	h233.80
	M10.00 42.00
	h233.80
	M10.00 36.00
	h233.80
	" class="stroke"/>
<path class="fill"
	d="M121.20 56.00c3.93 7.04 21.05 16.35 24.98 13.60
	v0.22c-4.68 4.53 -20.30 -4.79 -24.98 -13.82"/>
<path class="fill"
	d="M195.60 63.00c4.01 3.94 21.46 3.94 25.47 -0.00
	v0.23c-4.78 5.72 -20.69 5.72 -25.47 -0.23"/>
<defs>
<path id="utclef" class="fill" d="m-50 -90
	c-72 -41 -72 -158 52 -188
	150 -10 220 188 90 256
	-114 52 -275 0 -293 -136
	-15 -181 93 -229 220 -334
	88 -87 79 -133 62 -210
	-51 33 -94 105 -89 186
	17 267 36 374 49 574
	6 96 -19 134 -77 135
	-80 1 -126 -93 -61 -133
	85 -41 133 101 31 105
	23 17 92 37 90 -92
	-10 -223 -39 -342 -50 -617
	0 -90 0 -162 96 -232
	56 72 63 230 22 289
	-74 106 -257 168 -255 316
	9 153 148 185 252 133
	86 -65 29 -192 -80 -176
	-71 12 -105 67 -59 124"/>
<use id="tclef" transform="translate(0,6) scale(0.045)"
	xlink:href="#utclef"/>
</defs>
<use x="22.00" y="54.00" xlink:href="#tclef"/>
<defs>
<path id="uflat" class="fill" d="
	m100 -746
	h32
	v734
	l-32 4
	m32 -332
	c46 -72 152 -90 208 -20
	100 110 -120 326 -208 348
	m0 -28
	c54 0 200 -206 130 -290
	-50 -60 -130 -4 -130 34"/>
<use id="ft0" transform="translate(-3.5,3.5) scale(0.018)"
	xlink:href="#uflat"/>
</defs>
<use x="37.00" y="48.00" xlink:href="#ft0"/>
<defs>
<path id="csig" class="fill" d="
	m6 -5.3
	c0.9 0 2.3 0.7 2.4 2.2
	-1.2 -2 -3.6 0.1 -1.6 1.7
	2 1 3.8 -3.5 -0.8 -4.7
	-2 -0.4 -6.4 1.3 -5.8 7
	0.4 6.4 7.9 6.8 9.1 0.7
	-2.3 5.6 -6.7 5.1 -6.8 0
	-0.5 -4.4 0.7 -7.5 3.5 -6.9"/>
<g id="ctsig">
	<use xlink:href="#csig"/>
	<path d="m5 8v-16" class="stroke"/>
</g>
</defs>
<use x="48.00" y="48.00" xlink:href="#ctsig"/>
<path class="fill"
	d="M74.20 28.70l18.70 3.70v3.20l-18.70 -3.70"/>
<path class="fill"
	d="M81.50 35.20l-7.00 -1.40v3.20l7.00 1.40"/>
<defs>
<ellipse id="hd" rx="4.1" ry="2.9"
	transform="rotate(-20)" class="fill"/>
</defs>
<use x="71.00" y="51.00" xlink:href="#hd"/>
<path d="M74.50 51.00v-21.20" class="stroke"/>
<use x="89.00" y="57.00" xlink:href="#hd"/>
<circle class="fill" cx="96.70" cy="57.00" r="1.2"/>
<path d="M92.50 57.00v-23.60" class="stroke"/>
<path class="fill"
	d="M124.40 25.70l29.70 8.80v3.20l-29.70 -8.80"/>
<path class="fill"
	d="M146.70 37.30l7.00 2.10v3.20l-7.00 -2.10"/>
<use x="121.20" y="45.00" xlink:href="#hd"/>
<circle class="fill" cx="128.90" cy="45.00" r="1.2"/>
<path d="M124.70 45.00v-18.20" class="stroke"/>
<defs>
<path id="hl" class="stroke" d="m-6 0h12"/>
</defs>
<use x="150.20" y="66.00" xlink:href="#hl"/>
<use x="150.20" y="66.00" xlink:href="#hd"/>
<path d="M153.70 66.00v-30.60" class="stroke"/>
<path class="fill"
	d="M173.30 39.40l51.60 -3.20v3.20l-51.60 3.20"/>
<use x="170.20" y="63.00" xlink:href="#hd"/>
<path d="M173.70 63.00v-22.60" class="stroke"/>
<use x="195.60" y="57.00" xlink:href="#hd"/>
<path d="M199.10 57.00v-18.20" class="stroke"/>
<use x="221.10" y="57.00" xlink:href="#hd"/>
<path d="M224.60 57.00v-19.80" class="stroke"/>
<defs>
<path id="upb" class="stroke" d="
	m-2.6 -9.4
	l2.6 8.8
	2.6 -8.8"/>
</defs>
<use x="71.00" y="25.00" xlink:href="#upb"/>
<defs>
<g id="dnb">
	<path d="M-3.2 -2v-7.2m6.4 0v7.2" class="stroke"/>
	<path d="M-3.2 -6.8v-2.4l6.4 0v2.4" class="fill"/>
</g>
</defs>
<use x="89.00" y="28.00" xlink:href="#dnb"/>
<use x="121.20" y="22.00" xlink:href="#upb"/>
<defs>
<circle id="stc" class="fill" cx="0" cy="-3" r="1.2"/>
</defs>
<use x="121.20" y="54.00" xlink:href="#stc"/>
<use x="170.20" y="34.00" xlink:href="#dnb"/>
<use x="195.60" y="34.00" xlink:href="#upb"/>
</g>
</svg>
